<svg xmlns="http://www.w3.org/2000/svg" role="img" width="24" height="24" style=""><rect id="backgroundrect" width="100%" height="100%" x="0" y="0" fill="none" stroke="none"/><title>WhatsApp icon</title><g class="currentLayer" style=""><title>Layer 1</title><path d="M17.5756269441247,14.589253888249397 c-0.29700000000000004,-0.14900000000000002 -1.758,-0.8670000000000001 -2.03,-0.9670000000000001 c-0.273,-0.09900000000000003 -0.47100000000000003,-0.14800000000000002 -0.6700000000000002,0.15000000000000002 c-0.19700000000000004,0.29700000000000004 -0.7670000000000001,0.9660000000000001 -0.9400000000000001,1.1640000000000001 c-0.17300000000000001,0.19900000000000004 -0.3470000000000001,0.22300000000000003 -0.6440000000000001,0.07500000000000001 c-0.29700000000000004,-0.15000000000000002 -1.255,-0.463 -2.39,-1.475 c-0.8830000000000001,-0.788 -1.48,-1.7610000000000001 -1.653,-2.059 c-0.17300000000000001,-0.29700000000000004 -0.018000000000000002,-0.458 0.13,-0.6060000000000001 c0.134,-0.133 0.29800000000000004,-0.3470000000000001 0.44600000000000006,-0.52 c0.14900000000000002,-0.17400000000000002 0.19800000000000004,-0.29800000000000004 0.29800000000000004,-0.49700000000000005 c0.09900000000000003,-0.19800000000000004 0.05000000000000001,-0.37100000000000005 -0.025000000000000005,-0.52 c-0.07500000000000001,-0.14900000000000002 -0.6690000000000002,-1.612 -0.916,-2.207 c-0.24200000000000002,-0.5790000000000001 -0.48700000000000004,-0.5 -0.6690000000000002,-0.51 c-0.17300000000000001,-0.008000000000000002 -0.37100000000000005,-0.010000000000000002 -0.5700000000000001,-0.010000000000000002 c-0.19800000000000004,0 -0.52,0.07400000000000001 -0.792,0.37200000000000005 c-0.272,0.29700000000000004 -1.04,1.016 -1.04,2.479 c0,1.462 1.065,2.875 1.213,3.074 c0.14900000000000002,0.19800000000000004 2.096,3.2 5.077,4.487 c0.7090000000000001,0.30600000000000005 1.262,0.48900000000000005 1.6940000000000002,0.6250000000000001 c0.7120000000000001,0.22700000000000004 1.36,0.19500000000000003 1.871,0.11800000000000002 c0.5710000000000001,-0.08500000000000002 1.758,-0.7190000000000001 2.006,-1.413 c0.24800000000000003,-0.6940000000000002 0.24800000000000003,-1.2890000000000001 0.17300000000000001,-1.413 c-0.07400000000000001,-0.12400000000000001 -0.272,-0.19800000000000004 -0.5700000000000001,-0.3470000000000001 m-5.421,7.4030000000000005 h-0.004000000000000001 a9.870000000000001,9.870000000000001 0 0 1 -5.031,-1.3780000000000001 l-0.36100000000000004,-0.21400000000000002 l-3.741,0.982 l0.998,-3.648 l-0.23500000000000001,-0.37400000000000005 a9.86,9.86 0 0 1 -1.51,-5.26 c0.0010000000000000002,-5.45 4.436,-9.884 9.888,-9.884 c2.64,0 5.122,1.03 6.9879999999999995,2.898 a9.825,9.825 0 0 1 2.8930000000000002,6.994 c-0.003000000000000001,5.45 -4.437,9.884 -9.885,9.884 m8.413,-18.297 A11.815,11.815 0 0 0 12.1536269441247,0.20725388824939728 C5.598626944124699,0.20725388824939728 0.26362694412469867,5.542253888249397 0.26062694412469867,12.099253888249397 c0,2.096 0.547,4.142 1.588,5.945 L0.16062694412469863,24.207253888249397 l6.305,-1.6540000000000001 a11.882,11.882 0 0 0 5.683,1.448 h0.005000000000000001 c6.554,0 11.89,-5.335 11.893,-11.893 a11.821,11.821 0 0 0 -3.48,-8.413 z" id="svg_1" class="" fill="#8f6051" fill-opacity="1" stroke-width="1"/></g></svg>